<svg id="Capa_1" data-name="Capa 1" xmlns="http://www.w3.org/2000/svg" viewBox="0 0 70.09 43.59">
    <defs>
        <style>.cls-1{fill:#C5D6E1;}</style>
    </defs>
    <title>speedometer</title>
    <path class="cls-1"
          d="M61.74,55.33a2.19,2.19,0,0,0-.23-.78L45,23.4a2.14,2.14,0,0,0-2.58-1A2.07,2.07,0,0,0,41,24.75l6.43,34.54a2.1,2.1,0,0,0,.3.74,6.74,6.74,0,0,0,.24.88,7.5,7.5,0,0,0,9.47,4.55,7.37,7.37,0,0,0,4.28-3.71,7.15,7.15,0,0,0,.35-5.59,6.89,6.89,0,0,0-.35-.83ZM55,24.65a2.09,2.09,0,1,0,0,4.18c17,0,30.78,13.57,30.78,30.25a2.14,2.14,0,0,0,4.27,0c0-19-15.73-34.43-35.05-34.43ZM33,32.29A34.1,34.1,0,0,0,20,59.08a2.13,2.13,0,0,0,4.26,0A29.94,29.94,0,0,1,35.7,35.55,2.06,2.06,0,0,0,36,32.61a2.17,2.17,0,0,0-3-.32Zm0,0"
          transform="translate(-20 -22.28)"></path>
</svg>
